HIERARCHY
ROOT mixamorig:Hips
{
	OFFSET -0.000008 104.274872 1.554316
	CHANNELS 6 Xposition Yposition Zposition Xrotation Yrotation Zrotation
	JOINT mixamorig:Spine
	{
		OFFSET -0.000005 10.181595 0.131519
		CHANNELS 6 Xposition Yposition Zposition Xrotation Yrotation Zrotation
		JOINT mixamorig:Spine1
		{
			OFFSET -0.000000 9.893959 -1.470707
			CHANNELS 6 Xposition Yposition Zposition Xrotation Yrotation Zrotation
			JOINT mixamorig:Spine2
			{
				OFFSET -0.000000 9.220757 -1.370641
				CHANNELS 6 Xposition Yposition Zposition Xrotation Yrotation Zrotation
				JOINT mixamorig:Neck
				{
					OFFSET 0.000001 16.740417 -2.049036
					CHANNELS 6 Xposition Yposition Zposition Xrotation Yrotation Zrotation
					JOINT mixamorig:Head
					{
						OFFSET 0.000000 9.617874 1.685006
						CHANNELS 6 Xposition Yposition Zposition Xrotation Yrotation Zrotation
						JOINT mixamorig:HeadTop_End
						{
							OFFSET 0.000002 22.037354 7.501101
							CHANNELS 6 Xposition Yposition Zposition Xrotation Yrotation Zrotation
							End Site
							{
								OFFSET 0.000168 2310.654297 -282.823242
							}
						}
					}
				}
				JOINT mixamorig:RightShoulder
				{
					OFFSET -4.569970 11.014908 -2.160885
					CHANNELS 6 Xposition Yposition Zposition Xrotation Yrotation Zrotation
					JOINT mixamorig:RightArm
					{
						OFFSET -10.592851 -0.524811 -2.232101
						CHANNELS 6 Xposition Yposition Zposition Xrotation Yrotation Zrotation
						JOINT mixamorig:RightForeArm
						{
							OFFSET -27.841511 0.000031 -0.000004
							CHANNELS 6 Xposition Yposition Zposition Xrotation Yrotation Zrotation
							JOINT mixamorig:RightHand
							{
								OFFSET -28.328831 -0.000015 0.000015
								CHANNELS 6 Xposition Yposition Zposition Xrotation Yrotation Zrotation
								JOINT mixamorig:RightHandThumb1
								{
									OFFSET -2.464806 -1.573990 2.681852
									CHANNELS 6 Xposition Yposition Zposition Xrotation Yrotation Zrotation
									JOINT mixamorig:RightHandThumb2
									{
										OFFSET -3.215179 -1.872803 1.924282
										CHANNELS 6 Xposition Yposition Zposition Xrotation Yrotation Zrotation
										JOINT mixamorig:RightHandThumb3
										{
											OFFSET -2.654831 -1.527969 1.512609
											CHANNELS 6 Xposition Yposition Zposition Xrotation Yrotation Zrotation
											JOINT mixamorig:RightHandThumb4
											{
												OFFSET -2.018814 -1.152008 1.108052
												CHANNELS 6 Xposition Yposition Zposition Xrotation Yrotation Zrotation
												End Site
												{
													OFFSET -188.809540 -114.533607 132.431396
												}
											}
										}
									}
								}
								JOINT mixamorig:RightHandIndex1
								{
									OFFSET -9.108284 -0.517868 2.259835
									CHANNELS 6 Xposition Yposition Zposition Xrotation Yrotation Zrotation
									JOINT mixamorig:RightHandIndex2
									{
										OFFSET -3.699989 0.000000 0.001215
										CHANNELS 6 Xposition Yposition Zposition Xrotation Yrotation Zrotation
										JOINT mixamorig:RightHandIndex3
										{
											OFFSET -2.850006 0.000031 -0.000522
											CHANNELS 6 Xposition Yposition Zposition Xrotation Yrotation Zrotation
											JOINT mixamorig:RightHandIndex4
											{
												OFFSET -2.772186 -0.000015 -0.000020
												CHANNELS 6 Xposition Yposition Zposition Xrotation Yrotation Zrotation
												End Site
												{
													OFFSET -277.218445 0.000000 -0.050231
												}
											}
										}
									}
								}
								JOINT mixamorig:RightHandMiddle1
								{
									OFFSET -9.532516 -0.000031 -0.000023
									CHANNELS 6 Xposition Yposition Zposition Xrotation Yrotation Zrotation
									JOINT mixamorig:RightHandMiddle2
									{
										OFFSET -3.700005 -0.000015 0.003713
										CHANNELS 6 Xposition Yposition Zposition Xrotation Yrotation Zrotation
										JOINT mixamorig:RightHandMiddle3
										{
											OFFSET -2.949974 0.000015 -0.002054
											CHANNELS 6 Xposition Yposition Zposition Xrotation Yrotation Zrotation
											JOINT mixamorig:RightHandMiddle4
											{
												OFFSET -2.946640 0.000000 -0.000156
												CHANNELS 6 Xposition Yposition Zposition Xrotation Yrotation Zrotation
												End Site
												{
													OFFSET -294.664337 0.000000 -0.113670
												}
											}
										}
									}
								}
								JOINT mixamorig:RightHandRing1
								{
									OFFSET -9.103600 -0.043076 -1.865134
									CHANNELS 6 Xposition Yposition Zposition Xrotation Yrotation Zrotation
									JOINT mixamorig:RightHandRing2
									{
										OFFSET -3.379288 0.000000 -0.001055
										CHANNELS 6 Xposition Yposition Zposition Xrotation Yrotation Zrotation
										JOINT mixamorig:RightHandRing3
										{
											OFFSET -2.889687 -0.000015 0.000379
											CHANNELS 6 Xposition Yposition Zposition Xrotation Yrotation Zrotation
											JOINT mixamorig:RightHandRing4
											{
												OFFSET -2.638809 -0.000015 0.000941
												CHANNELS 6 Xposition Yposition Zposition Xrotation Yrotation Zrotation
												End Site
												{
													OFFSET -263.880371 0.000000 0.516020
												}
											}
										}
									}
								}
								JOINT mixamorig:RightHandPinky1
								{
									OFFSET -8.076683 -0.486710 -3.806280
									CHANNELS 6 Xposition Yposition Zposition Xrotation Yrotation Zrotation
									JOINT mixamorig:RightHandPinky2
									{
										OFFSET -3.600014 -0.000015 -0.003747
										CHANNELS 6 Xposition Yposition Zposition Xrotation Yrotation Zrotation
										JOINT mixamorig:RightHandPinky3
										{
											OFFSET -2.099983 0.000000 -0.005739
											CHANNELS 6 Xposition Yposition Zposition Xrotation Yrotation Zrotation
											JOINT mixamorig:RightHandPinky4
											{
												OFFSET -2.115768 -0.000031 -0.003680
												CHANNELS 6 Xposition Yposition Zposition Xrotation Yrotation Zrotation
												End Site
												{
													OFFSET -211.577087 0.000000 -0.350686
												}
											}
										}
									}
								}
							}
						}
					}
				}
				JOINT mixamorig:LeftShoulder
				{
					OFFSET 4.570447 11.014725 -2.160855
					CHANNELS 6 Xposition Yposition Zposition Xrotation Yrotation Zrotation
					JOINT mixamorig:LeftArm
					{
						OFFSET 10.592371 -0.524597 -2.232119
						CHANNELS 6 Xposition Yposition Zposition Xrotation Yrotation Zrotation
						JOINT mixamorig:LeftForeArm
						{
							OFFSET 27.841532 -0.000031 0.000026
							CHANNELS 6 Xposition Yposition Zposition Xrotation Yrotation Zrotation
							JOINT mixamorig:LeftHand
							{
								OFFSET 28.328846 -0.000061 0.000022
								CHANNELS 6 Xposition Yposition Zposition Xrotation Yrotation Zrotation
								JOINT mixamorig:LeftHandThumb1
								{
									OFFSET 2.466141 -1.576172 2.681732
									CHANNELS 6 Xposition Yposition Zposition Xrotation Yrotation Zrotation
									JOINT mixamorig:LeftHandThumb2
									{
										OFFSET 3.217812 -1.872070 1.916482
										CHANNELS 6 Xposition Yposition Zposition Xrotation Yrotation Zrotation
										JOINT mixamorig:LeftHandThumb3
										{
											OFFSET 2.656029 -1.528778 1.514513
											CHANNELS 6 Xposition Yposition Zposition Xrotation Yrotation Zrotation
											JOINT mixamorig:LeftHandThumb4
											{
												OFFSET 2.020889 -1.154053 1.115139
												CHANNELS 6 Xposition Yposition Zposition Xrotation Yrotation Zrotation
												End Site
												{
													OFFSET 190.885437 -115.081749 130.048782
												}
											}
										}
									}
								}
								JOINT mixamorig:LeftHandIndex1
								{
									OFFSET 9.109314 -0.518021 2.259871
									CHANNELS 6 Xposition Yposition Zposition Xrotation Yrotation Zrotation
									JOINT mixamorig:LeftHandIndex2
									{
										OFFSET 3.699989 0.000000 -0.000322
										CHANNELS 6 Xposition Yposition Zposition Xrotation Yrotation Zrotation
										JOINT mixamorig:LeftHandIndex3
										{
											OFFSET 2.850006 0.000000 0.000352
											CHANNELS 6 Xposition Yposition Zposition Xrotation Yrotation Zrotation
											JOINT mixamorig:LeftHandIndex4
											{
												OFFSET 2.774864 -0.000031 -0.000027
												CHANNELS 6 Xposition Yposition Zposition Xrotation Yrotation Zrotation
												End Site
												{
													OFFSET 277.486267 0.000000 -0.009857
												}
											}
										}
									}
								}
								JOINT mixamorig:LeftHandMiddle1
								{
									OFFSET 9.533394 0.000061 0.000044
									CHANNELS 6 Xposition Yposition Zposition Xrotation Yrotation Zrotation
									JOINT mixamorig:LeftHandMiddle2
									{
										OFFSET 3.699989 -0.000015 -0.000231
										CHANNELS 6 Xposition Yposition Zposition Xrotation Yrotation Zrotation
										JOINT mixamorig:LeftHandMiddle3
										{
											OFFSET 2.949997 -0.000015 -0.000059
											CHANNELS 6 Xposition Yposition Zposition Xrotation Yrotation Zrotation
											JOINT mixamorig:LeftHandMiddle4
											{
												OFFSET 2.952896 0.000031 0.000063
												CHANNELS 6 Xposition Yposition Zposition Xrotation Yrotation Zrotation
												End Site
												{
													OFFSET 295.289337 0.000000 0.022810
												}
											}
										}
									}
								}
								JOINT mixamorig:LeftHandRing1
								{
									OFFSET 9.104523 -0.042999 -1.865074
									CHANNELS 6 Xposition Yposition Zposition Xrotation Yrotation Zrotation
									JOINT mixamorig:LeftHandRing2
									{
										OFFSET 3.150009 -0.000031 0.000043
										CHANNELS 6 Xposition Yposition Zposition Xrotation Yrotation Zrotation
										JOINT mixamorig:LeftHandRing3
										{
											OFFSET 2.949982 -0.000015 0.000040
											CHANNELS 6 Xposition Yposition Zposition Xrotation Yrotation Zrotation
											JOINT mixamorig:LeftHandRing4
											{
												OFFSET 2.644348 0.000000 0.000057
												CHANNELS 6 Xposition Yposition Zposition Xrotation Yrotation Zrotation
												End Site
												{
													OFFSET 264.434631 0.000000 0.012105
												}
											}
										}
									}
								}
								JOINT mixamorig:LeftHandPinky1
								{
									OFFSET 8.077789 -0.486847 -3.806259
									CHANNELS 6 Xposition Yposition Zposition Xrotation Yrotation Zrotation
									JOINT mixamorig:LeftHandPinky2
									{
										OFFSET 3.599953 0.000031 0.014727
										CHANNELS 6 Xposition Yposition Zposition Xrotation Yrotation Zrotation
										JOINT mixamorig:LeftHandPinky3
										{
											OFFSET 2.100021 0.000015 0.007705
											CHANNELS 6 Xposition Yposition Zposition Xrotation Yrotation Zrotation
											JOINT mixamorig:LeftHandPinky4
											{
												OFFSET 2.125504 0.000031 0.007517
												CHANNELS 6 Xposition Yposition Zposition Xrotation Yrotation Zrotation
												End Site
												{
													OFFSET 212.550781 0.000000 0.625752
												}
											}
										}
									}
								}
							}
						}
					}
				}
			}
		}
	}
	JOINT mixamorig:RightUpLeg
	{
		OFFSET -8.207787 -6.751648 -1.599560
		CHANNELS 6 Xposition Yposition Zposition Xrotation Yrotation Zrotation
		JOINT mixamorig:RightLeg
		{
			OFFSET -0.000002 -44.370117 0.345942
			CHANNELS 6 Xposition Yposition Zposition Xrotation Yrotation Zrotation
			JOINT mixamorig:RightFoot
			{
				OFFSET 0.000003 -44.423679 -3.043532
				CHANNELS 6 Xposition Yposition Zposition Xrotation Yrotation Zrotation
				JOINT mixamorig:RightToeBase
				{
					OFFSET -0.000002 -8.728671 10.710558
					CHANNELS 6 Xposition Yposition Zposition Xrotation Yrotation Zrotation
					JOINT mixamorig:RightToe_End
					{
						OFFSET -0.000001 -0.000679 9.278119
						CHANNELS 6 Xposition Yposition Zposition Xrotation Yrotation Zrotation
						End Site
						{
							OFFSET 0.000000 -0.067690 927.812134
						}
					}
				}
			}
		}
	}
	JOINT mixamorig:LeftUpLeg
	{
		OFFSET 8.207793 -6.751686 -1.599556
		CHANNELS 6 Xposition Yposition Zposition Xrotation Yrotation Zrotation
		JOINT mixamorig:LeftLeg
		{
			OFFSET -0.000004 -44.370014 0.346954
			CHANNELS 6 Xposition Yposition Zposition Xrotation Yrotation Zrotation
			JOINT mixamorig:LeftFoot
			{
				OFFSET -0.000001 -44.423672 -3.044401
				CHANNELS 6 Xposition Yposition Zposition Xrotation Yrotation Zrotation
				JOINT mixamorig:LeftToeBase
				{
					OFFSET -0.000002 -8.728669 10.710558
					CHANNELS 6 Xposition Yposition Zposition Xrotation Yrotation Zrotation
					JOINT mixamorig:LeftToe_End
					{
						OFFSET -0.000003 -0.000679 9.278133
						CHANNELS 6 Xposition Yposition Zposition Xrotation Yrotation Zrotation
						End Site
						{
							OFFSET 0.000000 -0.068021 927.813477
						}
					}
				}
			}
		}
	}
}
MOTION
Frames: 3
Frame Time: 0.033333
0.000006 104.270477 1.554256 0.000010 0.000003 -0.000113 -0.000005 10.181587 0.131522 0.000001 -0.000003 0.000084 -0.000000 9.893967 -1.470711 0.000001 0.000000 -0.000000 -0.000000 9.220802 -1.370642 0.000000 -0.000000 -0.000000 0.000001 16.740433 -2.049030 0.000000 -0.000000 -0.000000 0.000000 9.617859 1.685014 0.000000 0.000000 0.000000 0.000002 22.037384 7.501101 0.000000 -0.000000 0.000000 -4.569968 11.014880 -2.160881 0.000008 0.000001 -0.000038 -10.592877 -0.524756 -2.231913 76.059730 26.946085 -21.226331 -27.841505 -0.000004 0.000537 -47.960407 108.363376 63.293942 -28.328827 0.000006 0.000025 -0.000324 -0.000043 0.000006 -2.464410 -1.573889 2.682368 -35.436135 -152.538792 15.471801 -3.215230 -1.872498 1.924617 146.113237 33.587646 33.624847 -2.654969 -1.527857 1.513053 147.791579 27.801371 -26.777135 -2.018823 -1.152012 1.108057 -0.000001 -0.000005 0.000000 -9.108382 -0.517570 2.260142 105.529749 16.350399 -21.469146 -3.700064 0.000306 0.001527 101.622853 15.296386 -18.677736 -2.850097 0.000362 -0.000215 101.747013 12.217412 -14.989241 -2.772171 -0.000016 -0.000020 -0.000000 0.000001 0.000000 -9.532580 0.000277 0.000273 103.505377 13.916061 -17.777937 -3.700080 0.000335 0.004007 101.747279 11.513568 -14.014479 -2.950050 0.000338 -0.001767 103.641680 10.827780 -13.735844 -2.946625 0.000002 -0.000157 -0.000000 0.000002 -0.000000 -9.103682 -0.042740 -1.864838 104.369361 14.424393 -18.465544 -3.379320 0.000338 -0.000776 102.702529 6.951634 -8.707943 -2.889743 0.000366 0.000674 107.859014 5.021913 -6.951304 -2.638805 -0.000015 0.000941 -0.000000 -0.000000 0.000001 -8.076738 -0.486378 -3.805988 96.208597 15.460039 -17.043158 -3.600024 0.000295 -0.003480 99.172236 4.979622 -5.449426 -2.099980 0.000333 -0.005442 103.238446 1.616048 -1.779797 -2.115779 -0.000055 -0.003677 -0.000000 0.000000 -0.000002 4.570446 11.014691 -2.160851 -0.000018 0.000010 -0.000021 10.592402 -0.524477 -2.232352 72.711837 -14.904274 10.999173 27.841831 0.000054 -0.000185 -69.157639 -107.356975 -86.313264 28.328838 -0.000029 0.000021 0.000021 -0.000088 0.000000 2.465957 -1.576152 2.681903 -44.049802 162.543285 0.887152 3.217805 -1.871734 1.916376 155.339252 -30.507836 3.234150 2.656096 -1.528660 1.514453 138.054898 -28.378784 44.337319 2.020894 -1.154078 1.115152 -0.000000 0.000001 0.000004 9.109371 -0.517867 2.259740 83.719848 -15.710444 14.082620 3.700033 0.000144 -0.000469 79.736366 -15.714658 13.164206 2.850060 0.000160 0.000191 77.727669 -13.446355 10.852200 2.774880 -0.000045 -0.000028 0.000001 -0.000000 -0.000000 9.533444 0.000212 -0.000105 83.256885 -14.539325 12.928299 3.700058 0.000160 -0.000368 84.188809 -13.889959 12.556890 2.950075 0.000147 -0.000207 82.599943 -18.132272 15.962617 2.952871 -0.000015 0.000063 -0.000000 0.000001 0.000001 9.104578 -0.042854 -1.865221 83.211942 -13.533845 12.031933 3.150069 0.000190 -0.000096 86.613315 -12.186855 11.493534 2.950032 0.000154 -0.000063 87.081183 -14.424586 13.716587 2.644341 0.000031 0.000054 0.000003 0.000000 -0.000000 8.077832 -0.486731 -3.806405 74.855472 -15.606489 12.425840 3.600007 0.000163 0.014569 74.957877 -12.619614 10.083705 2.100029 0.000174 0.007553 78.726352 -12.281288 10.486527 2.125511 0.000000 0.007513 -0.000000 -0.000000 -0.000000 -8.207786 -6.751667 -1.599560 -0.077001 -0.000003 0.000080 -0.000002 -44.370110 0.345938 0.153719 -0.000000 -0.000000 0.000000 -44.423679 -3.043532 -0.076700 0.000000 -0.000002 -0.000006 -8.728667 10.710559 -0.000009 -0.000000 -0.000000 -0.000001 -0.000679 9.278123 0.000000 -0.000000 -0.000000 8.207792 -6.751710 -1.599556 -0.074518 -0.000003 0.000081 -0.000002 -44.370014 0.346960 0.148822 0.000002 0.000000 -0.000001 -44.423664 -3.044403 -0.074314 0.000000 -0.000002 -0.000004 -8.728671 10.710558 0.000007 -0.000000 -0.000000 0.000000 -0.000680 9.278137 -0.000000 0.000000 -0.000001 
0.000006 104.270477 1.554256 0.000010 0.000003 -0.000113 -0.000005 10.181587 0.131522 0.000001 -0.000003 0.000084 -0.000000 9.893967 -1.470711 0.000001 0.000000 -0.000000 -0.000000 9.220802 -1.370642 0.000000 -0.000000 -0.000000 0.000001 16.740433 -2.049030 0.000000 -0.000000 -0.000000 0.000000 9.617859 1.685014 0.000000 0.000000 0.000000 0.000002 22.037384 7.501101 0.000000 -0.000000 0.000000 -4.569968 11.014880 -2.160881 0.000008 0.000001 -0.000038 -10.592867 -0.524791 -2.231864 75.688004 36.615401 -28.832052 -27.841515 0.000005 0.000545 -46.551274 105.371767 58.879209 -28.328806 0.000022 0.000025 -0.000321 -0.000046 0.000010 -2.464379 -1.573806 2.682318 -45.767332 -156.970547 -5.480053 -3.215236 -1.872486 1.924602 144.193490 32.946732 34.200916 -2.654972 -1.527854 1.513053 147.721378 28.360576 -21.081505 -2.018831 -1.152020 1.108060 0.000001 0.000001 0.000004 -9.108361 -0.517535 2.260139 105.565129 14.730394 -19.377059 -3.700075 0.000332 0.001532 102.400409 13.007272 -16.111059 -2.850085 0.000373 -0.000230 102.735778 11.134506 -13.906102 -2.772155 -0.000016 -0.000020 -0.000000 -0.000001 -0.000000 -9.532592 0.000277 0.000274 100.646696 14.694720 -17.839604 -3.700075 0.000327 0.004014 101.066603 12.276648 -14.768500 -2.950075 0.000324 -0.001776 103.625554 11.893964 -15.079159 -2.946617 -0.000000 -0.000158 -0.000000 -0.000002 -0.000000 -9.103693 -0.042764 -1.864839 101.710594 17.377400 -21.211813 -3.379341 0.000324 -0.000774 102.587160 9.520955 -11.887790 -2.889745 0.000349 0.000695 108.633879 7.271681 -10.177063 -2.638811 -0.000003 0.000942 0.000001 0.000001 0.000001 -8.076748 -0.486392 -3.805983 94.485156 19.490199 -20.879152 -3.600045 0.000282 -0.003487 95.730340 8.305833 -8.786072 -2.100017 0.000315 -0.005440 98.515630 4.379771 -4.833495 -2.115772 -0.000054 -0.003677 0.000002 -0.000002 -0.000004 4.570446 11.014691 -2.160851 -0.000018 0.000010 -0.000021 10.592418 -0.524469 -2.232375 73.095325 -19.978464 14.876879 27.841831 0.000046 -0.000210 -68.661686 -105.176751 -83.521691 28.328848 -0.000028 0.000022 0.000026 -0.000088 -0.000000 2.466035 -1.576158 2.681913 -32.948921 160.794783 -24.828202 3.217813 -1.871773 1.916379 161.238281 -28.888152 12.784860 2.656108 -1.528673 1.514477 140.071429 -27.502257 52.806429 2.020891 -1.154084 1.115157 0.000001 0.000002 0.000003 9.109370 -0.517884 2.259747 82.221059 -19.905927 17.401806 3.700046 0.000139 -0.000475 80.077397 -13.675628 11.521407 2.850057 0.000172 0.000193 79.314390 -10.856532 9.006933 2.774879 -0.000031 -0.000023 0.000000 0.000000 0.000000 9.533474 0.000182 -0.000077 82.324912 -18.403945 16.114715 3.700055 0.000175 -0.000364 84.806436 -11.854925 10.830223 2.950088 0.000166 -0.000214 85.161818 -12.598786 11.587380 2.952844 -0.000016 0.000061 0.000000 0.000000 -0.000000 9.104599 -0.042863 -1.865215 82.824315 -17.956472 15.868032 3.150052 0.000205 -0.000104 88.067243 -11.322283 10.950718 2.950005 0.000187 -0.000068 89.104408 -10.663792 10.501033 2.644326 0.000046 0.000059 0.000000 0.000001 -0.000000 8.077833 -0.486736 -3.806386 76.052708 -19.346229 15.663575 3.600011 0.000177 0.014564 79.162582 -14.836223 12.718306 2.100034 0.000170 0.007541 82.385421 -11.880475 10.829270 2.125503 0.000000 0.007513 0.000001 0.000002 -0.000000 -8.207786 -6.751667 -1.599560 -0.077001 -0.000003 0.000080 -0.000002 -44.370110 0.345938 0.153719 -0.000000 -0.000000 0.000000 -44.423679 -3.043532 -0.076700 0.000000 -0.000002 -0.000006 -8.728667 10.710559 -0.000009 -0.000000 -0.000000 -0.000001 -0.000679 9.278123 0.000000 -0.000000 -0.000000 8.207792 -6.751710 -1.599556 -0.074518 -0.000003 0.000081 -0.000002 -44.370014 0.346960 0.148822 0.000002 0.000000 -0.000001 -44.423664 -3.044403 -0.074314 0.000000 -0.000002 -0.000004 -8.728671 10.710558 0.000007 -0.000000 -0.000000 0.000000 -0.000680 9.278137 -0.000000 0.000000 -0.000001 
0.000006 104.270477 1.554256 0.000010 0.000003 -0.000113 -0.000005 10.181587 0.131522 0.000001 -0.000003 0.000084 -0.000000 9.893967 -1.470711 0.000001 0.000000 -0.000000 -0.000000 9.220802 -1.370642 0.000000 -0.000000 -0.000000 0.000001 16.740433 -2.049030 0.000000 -0.000000 -0.000000 0.000000 9.617859 1.685014 0.000000 0.000000 0.000000 0.000002 22.037384 7.501101 0.000000 -0.000000 0.000000 -4.569968 11.014880 -2.160881 0.000008 0.000001 -0.000038 -10.592850 -0.524810 -2.231820 75.586138 44.661982 -35.337548 -27.841518 -0.000006 0.000546 -45.945791 103.298094 56.363964 -28.328829 0.000020 0.000029 -0.000323 -0.000046 0.000007 -2.464389 -1.573831 2.682329 -45.137291 -155.435011 -4.283872 -3.215234 -1.872480 1.924610 143.037248 32.748623 36.868241 -2.654963 -1.527853 1.513034 147.278700 28.631555 -18.477296 -2.018831 -1.152006 1.108063 -0.000001 -0.000003 0.000004 -9.108364 -0.517553 2.260171 107.099074 14.608012 -19.751017 -3.700056 0.000314 0.001543 103.300232 12.945119 -16.291212 -2.850078 0.000368 -0.000224 103.197670 10.951445 -13.790775 -2.772170 -0.000001 -0.000021 0.000000 0.000002 -0.000000 -9.532583 0.000288 0.000294 102.334648 13.634256 -17.066800 -3.700068 0.000325 0.004025 103.267461 11.757605 -14.702566 -2.950046 0.000340 -0.001767 104.840569 11.619896 -15.055151 -2.946617 0.000015 -0.000147 -0.000000 -0.000002 -0.000000 -9.103699 -0.042751 -1.864831 102.540954 15.741841 -19.505806 -3.379332 0.000319 -0.000759 104.646879 9.193410 -11.910071 -2.889758 0.000352 0.000698 109.806397 7.492703 -10.712264 -2.638810 -0.000001 0.000944 -0.000001 0.000001 0.000000 -8.076764 -0.486403 -3.805981 94.422680 18.849321 -20.168488 -3.600041 0.000282 -0.003488 96.321104 8.437075 -9.022957 -2.100013 0.000319 -0.005455 99.110047 4.673593 -5.227820 -2.115769 -0.000044 -0.003673 0.000000 -0.000001 -0.000003 4.570446 11.014691 -2.160851 -0.000018 0.000010 -0.000021 10.592463 -0.524475 -2.232396 73.092450 -33.597984 25.226740 27.841846 0.000040 -0.000170 -68.271784 -103.828786 -81.725208 28.328835 -0.000031 0.000027 0.000021 -0.000090 -0.000001 2.466084 -1.576171 2.681905 -28.012035 159.769476 -34.746562 3.217834 -1.871794 1.916381 163.202207 -27.370503 19.228154 2.656130 -1.528686 1.514498 140.553217 -27.218075 55.375028 2.020876 -1.154080 1.115148 -0.000002 0.000002 0.000002 9.109376 -0.517882 2.259746 81.819212 -20.421750 17.731212 3.700035 0.000151 -0.000469 79.721073 -13.296689 11.131560 2.850044 0.000186 0.000192 78.933266 -10.317147 8.501052 2.774889 -0.000046 -0.000023 0.000001 -0.000002 -0.000001 9.533467 0.000189 -0.000083 81.947811 -19.006846 16.536383 3.700025 0.000181 -0.000397 84.700104 -11.250837 10.258614 2.950063 0.000173 -0.000189 85.198967 -12.154503 11.185595 2.952881 -0.000014 0.000064 0.000004 0.000001 0.000000 9.104598 -0.042863 -1.865219 82.499792 -18.472808 16.234277 3.150045 0.000204 -0.000107 87.900935 -10.951268 10.561233 2.950020 0.000183 -0.000091 88.991716 -10.273396 10.096811 2.644314 0.000030 0.000057 0.000007 0.000001 -0.000002 8.077839 -0.486736 -3.806408 75.708187 -19.368810 15.585991 3.600016 0.000179 0.014574 78.936380 -14.816429 12.651272 2.100035 0.000182 0.007553 81.907697 -12.151900 10.976654 2.125510 0.000001 0.007514 0.000000 -0.000000 0.000000 -8.207786 -6.751667 -1.599560 -0.077001 -0.000003 0.000080 -0.000002 -44.370110 0.345938 0.153719 -0.000000 -0.000000 0.000000 -44.423679 -3.043532 -0.076700 0.000000 -0.000002 -0.000006 -8.728667 10.710559 -0.000009 -0.000000 -0.000000 -0.000001 -0.000679 9.278123 0.000000 -0.000000 -0.000000 8.207792 -6.751710 -1.599556 -0.074518 -0.000003 0.000081 -0.000002 -44.370014 0.346960 0.148822 0.000002 0.000000 -0.000001 -44.423664 -3.044403 -0.074314 0.000000 -0.000002 -0.000004 -8.728671 10.710558 0.000007 -0.000000 -0.000000 0.000000 -0.000680 9.278137 -0.000000 0.000000 -0.000001 
